<svg width="85" height="12" viewBox="0 0 85 12" fill="none" xmlns="http://www.w3.org/2000/svg">
<path fill-rule="evenodd" clip-rule="evenodd" d="M4.40593 4.03595C4.53687 4.0229 4.64692 3.94725 4.70058 3.83315L6.50009 0L8.2996 3.8329C8.35295 3.947 8.46301 4.02264 8.59425 4.0357L13 4.47184L9.70651 7.27703C9.60846 7.36038 9.56649 7.48289 9.59374 7.60521L10.5171 11.7077L6.68205 9.60828C6.56792 9.54578 6.43187 9.54598 6.31774 9.60828L2.48269 11.7077L3.40605 7.60521C3.43351 7.483 3.39143 7.36029 3.29349 7.27713L0 4.47194L4.40593 4.03595Z" fill="#F5CC26"/>
<path fill-rule="evenodd" clip-rule="evenodd" d="M22.4059 4.03595C22.5369 4.0229 22.6469 3.94725 22.7006 3.83315L24.5001 0L26.2996 3.8329C26.353 3.947 26.463 4.02264 26.5943 4.0357L31 4.47184L27.7065 7.27703C27.6085 7.36038 27.5665 7.48289 27.5937 7.60521L28.5171 11.7077L24.6821 9.60828C24.5679 9.54578 24.4319 9.54598 24.3177 9.60828L20.4827 11.7077L21.406 7.60521C21.4335 7.483 21.3914 7.36029 21.2935 7.27713L18 4.47194L22.4059 4.03595Z" fill="#F5CC26"/>
<path fill-rule="evenodd" clip-rule="evenodd" d="M40.4059 4.03595C40.5369 4.0229 40.6469 3.94725 40.7006 3.83315L42.5001 0L44.2996 3.8329C44.353 3.947 44.463 4.02264 44.5943 4.0357L49 4.47184L45.7065 7.27703C45.6085 7.36038 45.5665 7.48289 45.5937 7.60521L46.5171 11.7077L42.6821 9.60828C42.5679 9.54578 42.4319 9.54598 42.3177 9.60828L38.4827 11.7077L39.406 7.60521C39.4335 7.483 39.3914 7.36029 39.2935 7.27713L36 4.47194L40.4059 4.03595Z" fill="#F5CC26"/>
<path fill-rule="evenodd" clip-rule="evenodd" d="M58.4059 4.03595C58.5369 4.0229 58.6469 3.94725 58.7006 3.83315L60.5001 0L62.2996 3.8329C62.353 3.947 62.463 4.02264 62.5943 4.0357L67 4.47184L63.7065 7.27703C63.6085 7.36038 63.5665 7.48289 63.5937 7.60521L64.5171 11.7077L60.6821 9.60828C60.5679 9.54578 60.4319 9.54598 60.3177 9.60828L56.4827 11.7077L57.406 7.60521C57.4335 7.483 57.3914 7.36029 57.2935 7.27713L54 4.47194L58.4059 4.03595Z" fill="#F5CC26"/>
<path fill-rule="evenodd" clip-rule="evenodd" d="M76.4059 4.03595C76.5369 4.0229 76.6469 3.94725 76.7006 3.83315L78.5001 0L80.2996 3.8329C80.353 3.947 80.463 4.02264 80.5943 4.0357L85 4.47184L81.7065 7.27703C81.6085 7.36038 81.5665 7.48289 81.5937 7.60521L82.5171 11.7077L78.6821 9.60828C78.5679 9.54578 78.4319 9.54598 78.3177 9.60828L74.4827 11.7077L75.406 7.60521C75.4335 7.483 75.3914 7.36029 75.2935 7.27713L72 4.47194L76.4059 4.03595Z" fill="#F5CC26"/>
</svg>
