<svg width="88" height="15" viewBox="0 0 88 15" fill="none" xmlns="http://www.w3.org/2000/svg">
<path d="M72.351 0.711285C72.1438 0.711285 71.9755 0.551846 71.9755 0.355642C71.9755 0.159452 72.1438 0 72.351 0H74.7747C74.9416 0 75.083 0.102689 75.1317 0.245482L76.2525 3.01491H87.6245C87.8317 3.01491 88 3.17435 88 3.37055C88 3.41336 87.9922 3.45465 87.9774 3.49237L85.9946 9.74573C85.946 9.89965 85.7968 9.99953 85.6352 9.99953V9.99997H78.4417C78.2974 9.99997 78.1662 10.0557 78.071 10.1459C77.9758 10.236 77.9169 10.3602 77.9169 10.4969V10.5066C77.9169 10.6438 77.9758 10.7683 78.0706 10.858L78.0716 10.857C78.1668 10.9472 78.298 11.003 78.4423 11.003H84.9634C85.1711 11.003 85.339 11.1624 85.339 11.3586C85.339 11.5548 85.1706 11.7143 84.9634 11.7143H78.4423C78.0908 11.7143 77.7716 11.5785 77.5404 11.36L77.5414 11.3591L77.5404 11.3581C77.3097 11.1396 77.1663 10.8378 77.1663 10.506V10.4962C77.1663 10.1634 77.3097 9.8612 77.5404 9.64273C77.7711 9.42427 78.0902 9.2885 78.4423 9.2885H85.357L87.121 3.72584H76.5415L78.3506 8.19683C78.4242 8.38005 78.3271 8.58554 78.1331 8.65525C77.9397 8.72497 77.7227 8.63298 77.649 8.44933L75.6519 3.51345C75.647 3.50274 75.6425 3.49204 75.6387 3.48091L74.5178 0.711203H72.3524L72.351 0.711285ZM83.9571 12.5146C84.4167 12.5146 84.7897 12.8674 84.7897 13.3026C84.7897 13.7382 84.4171 14.091 83.9571 14.091C83.4975 14.091 83.1249 13.7382 83.1249 13.3026C83.1249 12.8674 83.4975 12.5146 83.9571 12.5146V12.5146ZM78.9087 12.5146C79.3683 12.5146 79.7409 12.8674 79.7409 13.3026C79.7409 13.7382 79.3683 14.091 78.9087 14.091C78.4487 14.091 78.0761 13.7382 78.0761 13.3026C78.0761 12.8674 78.4487 12.5146 78.9087 12.5146V12.5146Z" fill="white"/>
<path fill-rule="evenodd" clip-rule="evenodd" d="M42.5002 3.09357C42.9151 2.41442 43.3544 1.87727 43.8795 1.48134C44.589 0.946568 45.4296 0.679199 46.5397 0.679199C47.7709 0.679199 48.886 1.15045 49.693 1.91141C50.5008 2.67224 51 3.72433 51 4.88432C51 7.639 49.1057 8.99907 46.5901 10.8046C45.4195 11.6449 44.1084 12.5858 42.798 13.8212C42.6339 13.9752 42.3672 13.9752 42.2031 13.8212C40.8928 12.586 39.5816 11.6441 38.4117 10.8039C35.8945 8.99876 34 7.63808 34 4.88422C34 3.72427 34.4999 2.67213 35.307 1.91131C36.114 1.15049 37.2291 0.679233 38.4603 0.679233C39.5704 0.679233 40.411 0.946612 41.1205 1.48137C41.6456 1.87812 42.0849 2.41514 42.4998 3.09361L42.5002 3.09357ZM44.403 2.09857C43.8256 2.5333 43.3544 3.20619 42.8755 4.10901C42.8359 4.18287 42.7728 4.24542 42.6878 4.28514C42.4817 4.38277 42.2292 4.30334 42.1257 4.10901C41.6468 3.20527 41.1747 2.5333 40.5991 2.09857C40.0454 1.68124 39.3695 1.47256 38.4607 1.47256C37.4618 1.47256 36.5562 1.85497 35.9023 2.4722C35.2476 3.08956 34.842 3.94243 34.842 4.88419C34.842 7.24783 36.5941 8.5052 38.9212 10.1748C40.0279 10.9697 41.259 11.8537 42.5004 12.9843C43.7417 11.8537 44.973 10.9699 46.0805 10.1755C48.4065 8.50541 50.1586 7.24701 50.1586 4.88429C50.1586 3.94257 49.7538 3.08956 49.0983 2.4723C48.4444 1.85507 47.5388 1.47267 46.5399 1.47267C45.6299 1.47267 44.9549 1.68134 44.4029 2.09867L44.403 2.09857Z" fill="white"/>
<path d="M7.15834 0.864274C7.15834 1.02961 7.03135 1.16485 6.85674 1.17997C3.36487 1.31521 0.634857 4.0207 0.634857 7.32738C0.634857 9.25127 1.57129 11.0399 3.17446 12.2122V9.88252C3.17446 9.71718 3.31728 9.58194 3.49187 9.58194C3.66647 9.58194 3.80929 9.71719 3.80929 9.88252V12.8886C3.80929 13.0539 3.66646 13.1892 3.49187 13.1892H0.317443C0.142844 13.1892 2.83275e-05 13.0539 2.83275e-05 12.8886C2.83275e-05 12.7232 0.142852 12.588 0.317443 12.588H2.65065C0.984045 11.3104 0 9.37151 0 7.32738C0 3.69004 2.99983 0.729055 6.82502 0.563721C6.99962 0.563721 7.14244 0.69897 7.15828 0.864301L7.15834 0.864274ZM11.6343 2.06673H13.9675C14.1421 2.06673 14.2849 1.93148 14.2849 1.76615C14.2849 1.60081 14.1421 1.46557 13.9675 1.46557H10.7931C10.6185 1.46557 10.4756 1.60082 10.4756 1.76615V4.77222C10.4756 4.93756 10.6185 5.0728 10.7931 5.0728C10.9677 5.0728 11.1105 4.93755 11.1105 4.77222V2.44249C12.7135 3.61486 13.6501 5.40347 13.6501 7.32736C13.6501 10.619 10.9359 13.3245 7.45993 13.4898C7.28534 13.5048 7.14252 13.6401 7.15834 13.8055C7.17417 13.9708 7.30116 14.0911 7.47575 14.0911H7.49158C11.3009 13.9107 14.2849 10.9498 14.2849 7.32744C14.2849 5.28331 13.3008 3.34439 11.6342 2.06681L11.6343 2.06673Z" fill="white"/>
</svg>
